<?xml version="1.0" encoding="UTF-8"?>
<svg id="_レイヤー_1" data-name="レイヤー_1" xmlns="http://www.w3.org/2000/svg" version="1.1" viewBox="0 0 200 190">
  <!-- Generator: Adobe Illustrator 29.0.1, SVG Export Plug-In . SVG Version: 2.1.0 Build 192)  -->
  <path d="M98.7,18.7c2.5,2.7,5.1,6.1,5.1,10-1.8-3.9-4.1-7.4-7.2-10.5s-6.1-4.6-8.7-7-2.1-3.3-3.3-2.8-2.4,5-3,6.2c-3.5,7-8.1,12.2-10.4,19.8s-1.9,6.2-1.9,7.6v4c-.6,0-.5.2-.5-.4.2-2,.2-4.1.6-6.1s1.2-5.2,2-7.4c2.8-7.9,9.1-13.9,10.9-22.2l-8.6,9.6c-1.5,2.6-3.9,5-5.2,7.8-2.6,5.5-3.7,12.3-4.2,18.4-.4-.1-.5-1.4-.5-1.8-1.1-9.4,3.8-18.8,9.5-25.9s8.8-8,10.1-13.8c1.4-.4,1.4,1.2,2.1,2.2,3.1,4.7,9.2,8.2,13.1,12.5.1-1.1.9-1.9,1.7-2.6,3.8-3.7,9.9-5.4,11.5-11,.3,0,.7,0,.9,0s1.5,3.1,1.9,3.8c2.3,3.4,6.4,5.7,7.5,9.8,1.3-.9,2.8-1.5,4.2-2.3s3.3-2.4,4.4-2.8.9-.2,1.4-.1c.2.2-1.4,4.9-1.6,5.7-1.3,7.4,2.2,16.1,2.4,23.6,3.1-3.3,6.9-6.6,11-8.6,6.5-3.1,13.9-3.6,20.2-6.9s3.3-2.8,4.2-1.3c-1.6,1.7-4.1,3.8-5,6.1-2.8,7-3.7,16.4-6.2,23.7s-7.3,16.1-12.6,22-4.2,3.4-3.6,4c4.7-3.1,9.7-5.9,15.2-7.3s9-1.8,12.6-2.1c10-.6,17.3.8,26.5-4.5,1-.6,2.3-2.3,3.3-1.6l.4.6c-1.2,1.7-2.6,3.2-3.6,5-1.9,3.3-2.8,6.9-4.3,10.4-8.6,19.3-25.5,35.9-48.2,33.7s-3.6-.6-3.9-1.4l.3-.6c7.6,2,15.6.3,22.7-2.5,10.9-4.3,19.9-14.2,25.2-24.4s3.9-7.1,3.2-8c-1.7,2.1-3.2,4.5-4.9,6.6-7.7,9.9-20.3,17.2-32.4,20.4-2.2.6-4.9,1.3-7.1,1.5s-.5,0-.1-.4c12-2.1,23.4-7.4,32.5-15.4s7.7-8.8,10.5-13.3,2-3.3,1.8-3.6c-9.1,8-21.4,9.4-32.6,12.9-1.8.6-3.6,1.2-5.4,1.8s-4.8,2.3-7.4,2.9-.9.4-.8-.1c3.1-1,5.9-2.6,8.9-3.7,11.2-4.2,23.9-5.2,34-11.9s3.9-3.1,5.3-5.2c-.2-.4-.6,0-.9.2-12.8,8.3-25.9,8-39.6,13.3-3.9,1.5-7.1,3.5-10.8,5.2s-6.6,2.2-9.5,4.4c-.8,0-.2-.3,0-.5,2.7-1.8,5-2.3,7.8-3.6,4.5-2.1,8.6-4.8,13.3-6.6,9.7-3.8,19.9-4.4,29.5-7.9s7.3-2.8,7.7-3.7c-.2-1.2-.6,0-.8.1-3.9.5-7.7,1.7-11.6,2.2s1.1-.9,1.3-.5l-.7-.5c-7.1.2-14,.5-20.9,2.3s-14.6,6.1-21.5,10.3-6.5,3.8-10.1,5c-.4-.4,1.5-1.7,1.8-1.9,6.7-5,11.2-6.9,17-13.8,10.6-12.6,11.2-22.1,14.8-37.2.3-1.2,1.3-2.3.8-3.6-1.5,1.3-3.1,2.4-4.6,3.7-13.6,12.4-17.5,31.1-29.9,45.1s-1,1.7-1.8,2.4l-.6-.3c0,.4.2.8.1,1.2-.3,1-5.9,4-7.2,4.4.7,1.1,2.4.2,3.3-.1,11.7-4.5,22.3-16.9,27.8-27.8s6.3-17.1,11.2-24.6c.6,0,0,1.4-.1,1.7-1,2.4-2.7,4.8-3.8,7.3-2.5,5.7-4.3,11.7-7.3,17.4-4.9,9.3-14.7,20.7-24.1,25.5s-8.7,1.9-13.2,2.7l1-1.1.5.5c3.3-1.1,5.8-1.7,8.3-4.2s5.9-5.6,8.2-8.7c9.6-13.2,14.5-28.7,25.7-40.8,2.1-2.3,4.8-4.1,6.8-6.5-1.1-.2-2.6.9-3.6,1.4-19.1,10.7-19.1,25.9-28.9,42.5-2.7,4.6-6.5,10.3-10.7,13.1s-.8.6-1.3.9c-.5-.6.3-.6.7-.9,11.8-11.1,14-20.6,20.4-34.7,3.9-8.6,9.6-15.5,17.6-20.6s4.3-2,6-3.5c-7.9,2.2-15.5,3.6-22.1,8.7s-3.4,3.4-5.4,4.8c-.5.8.1,1.8.1,2.6.3,8.9-2,16.8-6.2,24.5s-4.4,7.2-8.3,9.4c0-1.9,2.1-3,3.2-4.3,5.5-6.9,9.3-16.3,9.7-25.2.5-10.3-3.1-19.9-3.1-30.1l-.5-.5c-.8,4.9-1.8,9.8-2,14.8s.2,1.7.1,2.4-.2.8-.4.4c-.5-6.5-.5-13.9,2.5-19.8-.5,0-.8,0-1.1.4-.6.5-2.8,4.5-3.2,5.4-1.5,3.5-2.4,7.8-2.6,11.6-.9,0-.4,0-.4-.5,0-3.9,1-9,2.7-12.6s2.9-4.2,2.6-4.4c-6.6,4.6-10.8,12.7-12.2,20.5-.5,0-.3-1.1-.2-1.5.5-3.5,2.3-7.6,4-10.6l3.6-5.9c-.6-.6-8,4.3-9,5-1.8,1.3-3.5,3-5,4.7s-3.5,4-3.2,5.3c9,8.4,14.4,20.2,13.5,32.7s-3.6,13.1-7,18.2-6.5,6.2-10.1,9.3c-.5.1-.5-.2-.3-.6.5-.8,3.5-3,4.4-3.9,15.3-14.7,14.6-37,.6-52.3s-5.2-5.2-5.7-4.7c-.1.5.2.8.4,1.1,1.8,3.5,5.6,7.4,7.7,11.1s1.8,3.4,2.3,4.9.4.9-.1.8c-2.3-6.7-7.3-11.9-11-17.9l.5-.7-1.1-.4-4.7-4.9c0,.8.3,1.6.6,2.3,1.5,3.8,4.7,8.1,6.6,12s5.7,12.7,6.1,18.2.2,1-.3,1c-1.3-11.9-8.5-21.7-13.6-32.1-.5,0-.3.6-.2.9,1,4.5,2.8,9.8,3.5,14.2s.3,1.7-.3,1.8c-1.2-6.8-3.7-13.4-4.7-20.2-1.8,1.7-1.3,4.9-1.7,7.3-.6,3.8-1.3,7.4-2.7,11-.5,0-.3-.6-.2-.9.5-2.1,1.5-4.3,1.8-6.5s.5-4.2.6-6.1.2-1.1-.3-1c-1.8,6.4-5.7,11.9-8.2,18-3.9,9.9-5.8,22-2,32.2s1.5,3.1,2.1,4.5.6.7.2.9c-5.1-7.7-5.4-16.7-4.3-25.6s8.2-20.1,11.6-30.9l-9,11.1c-11.9,16.7-10.7,36.1,3.9,50.6,1.7,1.7,4,3,5.8,4.7h.4c-2-2.8-4.1-5.9-5-9.1l4.9,8.3c2.2,2.5,2.8,3.2,6.2,2.4s3.6-2.7,4.8-4.3c5.6-7.7,7.4-16.5,7.1-25.9,0-.5-.6-3.7-.1-3.7.7,6,.8,12.4-.8,18.3s-5.1,11.3-9,15.2c8.3-1.8,16.6-2.4,25-1s13.8,3.8,20.7,2.3c2.1-.5,5.6-2.4,7.4-2.6s1.4.4,1.4,1.3c-4.7,1.4-8.2,4.9-11,8.8-5.5,7.5-10.6,15.7-19.5,19.5-7,3-16.2,2.8-23.3.2s-3.1-1.9-4.8-2.5c-.9,16.9,4.5,34.3,17.2,45.8s12.8,8.9,20.4,13.1,3.7,2.2,5.4,3.4c-5.6-2.6-11.4-4.3-16.6-7.6-8.4-5.3-15.9-12.1-20.7-20.9s-7.1-18.8-7.5-29v-5.7c-3.3-3-5.6-6.7-6.4-11.3l-2.9,3.9c-12.6,12.5-34,10.7-48,1.5s-13.7-13.3-20.6-19.8-2.5-1.2-1.9-2.2c2.8-.1,6.8,2.7,9.4,2.4s.9-.6,1.6-.7c12-2.5,21.6-5,34-2.3s12.2,3.6,15.2,5.3.7,0,.5.7c-5.3-.6-10.4-3.2-15.5-4.3s-12.1-1.5-18.1-.9l-16.8,3c6.1,2.1,12.6,2.9,18.8,4.3,12.4,2.7,24.2,7.1,36.8,3.1s5-2.6,7.7-3.3l.9-1.2c-1.3-.5-2.6-.2-3.9-.4-8.6-1.3-19.6-8.2-25.4-14.5s-5.4-8-8.7-11.2c-9.1-9.2-22.8-14.6-35.7-13.6l-8.2-2.3c2.1,1.9,4.6,3.5,7,4.9s3.5,1.7,5,2.5c2.5,1.3,4.9,2.5,7.4,3.7.6.5.2.5-.3.3-6.4-2.9-12.8-5.5-18.4-9.9-.4.3.1.6.3.9,7.6,12.2,20.2,20.9,32.8,27.1,0,.5-.6.2-.8.1-1-.4-2.1-1.3-3.1-1.9s-1.6-.6-2.4-1c-9.5-5.1-17.2-12.1-24.7-19.8.6,1.7,1.6,3.3,2.5,4.8,3.8,6,10.6,13.7,16.6,17.5s5.8,3.2,8.6,4.3c0,.5-.7.3-1,.3-8.6-.2-21.1-15.1-25.3-22.1s-4.6-10.2-8.1-14.6c0-.5,0-.4.4-.4,1,0,2.8,1.2,4,1.6,8.9,3.2,17,1.8,25.5,4.7s11.6,6.3,16.9,10.4c-.5-2.4-1.9-4.5-2.7-6.9-3.4-10.2-2-19.5-3.2-29.8s-1.6-5.4-2.5-7.9c1-.1,1.8.5,2.6.9,9.6,4.9,20.2,14.4,24.8,24.2s2,6,3,9.1,0,.8.6.9c.3-8.8,4.2-16.6,9.3-23.5s9.2-9.9,11.2-16.8c.3-.2.8,0,1,.3.7.6,2,3.5,3,4.6s7.5,7.6,8,7.5c4.7-7,11-12.3,18.7-15.8.3-.4-6.3-6.9-6.9-7.3s-.3-.5-.8-.4v9.7c-.4,0-.5-1.2-.6-1.5-.2-1.9,0-3.9,0-5.8s-.5-2.1,0-3.1l-.6-.9-.9,2.7-1.7,10.9c-.9,0-.4,0-.5-.5-.2-4,1.7-8.7,1.8-12.8-.6.2-.5,1.2-.8,1.7s-.5.3-.6.5c-2.1,3.4-3.4,7.1-4.3,11-.6-.1,0-1.4,0-1.8.5-1.7,1.4-4.3,2.1-6s1.8-3,2.3-4.7c-1.2.6-2.4,2.3-3.4,2.9s-3,1.4-4.3,2.5-2.9,3.3-3.6,2.6ZM50.5,73.6c-2.5-6.2-4.3-12.8-5-19.5s0-13-1.5-19-.6-2.3-1.2-2.8c1.2,8.7.3,17.7,2,26.4s1.3,5.2,2.2,7.8,1.9,5.3,3.5,7.1ZM83,98.8c1.6.2,3.5-.1,5.1,0,.1-.6,0-.4-.4-.6-.9-.5-2.2-.7-3.3-1.4-17.7-10.1-19.9-28.7-24.6-46.3s-1.5-4-2-6-.4-.9.1-.8c3.7,9.6,4.9,19.9,8.5,29.6s7.4,15.2,14.8,20.7,6.6,4.3,10.5,4.7c-2.8-2.1-5.9-3.8-8.6-6.1-13.5-11.7-10.4-21.7-16.5-36.1s-6.9-11.4-11.9-16.9-2.2-2-3.3-3l2.6,7.1c3.3,14.4,4.7,27.9,13.4,40.3s9.7,11.4,16,13.5c0,.5-.8.2-1.1.2-2.9-.6-7.8-4.3-10-6.4-6.7-6.3-12.1-16.8-14.5-25.6s-3.3-26.5-10.1-31.4-.9-.8-.8,0c.4,2.4,1.4,4.8,1.8,7.3,1.7,9,1.7,18.5,4.9,27.3,3.1,8.8,9.2,17,16.3,23.1-.5.3-1.2-.4-1.6-.6-5.5-3.6-12.1-13.6-14.7-19.6-4.4-10.4-3.8-22-6.3-32.8s-1.3-6.8-3.5-6.2c1.1,1.9,1.4,4.7,1.7,6.9,1.4,13.2.4,23.8,6.9,36.3s19.2,21.9,30.6,23.1ZM135.5,101.3c-8-2.3-16.1-4.3-24.5-3.9s-8.7,1.5-13.1,2c0,.4.5.4.8.5,2.1.6,3.5.5,5.5.4s0,.5.3.5c.3,0,1.9-.5,2,.3-4.1.6-7.9-1.2-11.9-1.1,3.7,3.6,10.3,4.7,15.3,5s11.3-.3,12.1.1.2.7.4.7c2.2-1,4.4-1.8,6.7-2.4s5.1-.8,6-1.2.6-.3.5-.8ZM36.4,111.5c-7.1-1.5-11.6-8-17.7-11.8-.2-.1-.6-.7-.9-.3,7.3,7.5,14.9,16,24.8,20s32.8,5.2,41.3-7.6,1.3-3.2,1.7-4.8l-4.8,6.1.7-1.9-1.1.4c.8-1,2.2-1.6,2.9-2.7s.5-1.7.9-2.5,2.7-1.6,2.1-3.3c0-.1-2.6,1.5-3,1.5s-.5-.3-.9-.3c-2.2.2-5.3,2.2-7.7,2.8-10.4,2.9-28.8-2.2-39.7-4.4-5.2-1.1-10.3-2.1-15.4-3.5l9.6,7.7,7.3,4.5ZM121.9,106c-.1-.5-.6-.5-1-.6-8.1-.7-15.3,1.2-23.3-2.4s-5.1-3.2-5.9-3c-1.5.3-1.9,4.7-1.4,6-.4,0-.4-.5-.5-.8-.2-.8-.4-1.7-.4-2.5-.4.1-.7.6-.8,1-1,2.2-1.7,7-1.3,9.4.7,4.2,7.1,5.1,10.4,4v-.8c-5.7.5-10.3-3.2-9.9-9.1l1.1,4c1.6,3.7,5.6,4.7,9.4,4.9v.8c.5-1,1.3-.7,2.2-1,7.6-2.2,13.9-7.2,21.3-9.8ZM144.1,101.3c-.5,0-.8.1-1.2.3-9.7,5.1-15.6,17.1-25.3,22.6l-4.5,2.3c9.4-.1,16.7-6.9,22.4-13.7s2.8-4.1,4.3-6.2,3.2-3.2,4.3-5.3ZM141,101.8c-3.6.5-7.4,3-10.3,5-7.4,5.2-12.9,12.7-21.1,16.8l-5.6,2.3c4.9,1,9.1-.1,13.3-2.6,7.9-4.7,13.2-13,20.1-18.9l3.7-2.5ZM133.9,103.8c-1.6,0-3.1.6-4.6,1.1-3.4,1.2-7.9,2.9-11.2,4.3-8,3.4-16,9.8-25.3,9s-2.3-.7-3.5-.7c1.3,1.7,4.1,4.2,6.1,4.7,4.3,1,10.7-2.1,14.3-4.4l10.3-7.6c.4.4-7.5,6.3-8.1,6.8-3.1,2.2-6.7,4.4-10.4,5.4s-3.2.5-4.7,1.1c-.4.3.8.7,1,.7,10.9,3.3,19.4-7.2,26.7-13.4s6.1-4.7,9.3-6.9Z"/>
  <path d="M103.9,166.6c-2.5-2.7-5.1-5.1-8.1-7.3s-6.7-4.8-9.8-6.8c-19.5-12.7-49.3-21.4-68.7-3.9-.2,0-.2-.3-.1-.4.6-3.3,9.2-7.5,12.3-8.5,22.9-7.7,50.5,4.8,68.1,19.3,2.6,2.1,5,4.5,6.4,7.6Z"/>
  <path d="M145.2,148.3c1.5.4,1.9,1.8,3.1,2.6,2.7,1.9,8.3,1.1,10.5-1.4s-.9-3.9-2.1-5.1c-3.9-3.9-13.6-4.8-18.8-4.4-8.6.7-15.8,5.6-20.7,12.5l-3.2,5.5c.7-2.9,2.5-6.1,4.3-8.6,7.8-10.2,20.4-13,32.4-9.5s9.9,4,10,8.5-5.2,4.9-7.6,5-7.5-1.8-7.9-5.1Z"/>
  <path d="M69.3,21.8l-12.7-7.5c0,.8.7,1.2,1,1.9,1,2.5,2.3,7.5,2.6,10.2s.2,1.9-.3,2.1c-.7-3.8-1.3-8.1-2.6-11.6s-1.6-4.2-2.3-3.6c1.4,6.5.6,12.9,0,19.4l-.3-2.6c.4-5.4.9-10.9-.5-16.2l-1,6c-.5,1.8-1.1,3.5-1.7,5.2s-2,5.6-2.2,5.9c-.3.4-.5.3-1,.3,1.6-7.6,5.9-14.4,3.9-22.4.5-.5,2.4,1.8,2.9,2.2,4.7,3.7,11.1,5.6,14.3,10.8Z"/>
  <path d="M124.2,86.6c7.5-6.6,13.7-14.2,18.1-23.3s3.2-8.6,5.9-12.2l-4.7,11.5c-2.8,6.2-6.3,11.8-10.8,16.9-2.5,2.8-5,5.6-8.6,7.1Z"/>
  <path d="M79.3,102.1c.1.8-.2.5-.7.5-9.3,1.7-19.6-1.2-28.6-3.2l-7.5-1.2c5.6-.5,10.9,1.6,16.2,2.7s13.8,2.1,20.6,1.1Z"/>
  <path d="M169,104c-2.8,2.6-6.8,4.5-10.4,5.8-5.2,1.9-10.9,3.3-16.5,2.2,0-.5.6-.3,1-.3,7.8-.3,12.5-1.1,19.7-4.4l6.2-3.4Z"/>
  <path d="M45.5,75.5l-8.8-5.8-6.4-3.3-14.8-4.7c11.1,1.8,21.5,6.4,29.9,13.8Z"/>
  <path d="M185.6,82.2c-2.9,3.7-6.8,5.8-11,7.7-4.8,2.2-10.2,4-15.3,5.3l15.9-6.1c3.1-1.5,5.4-3.1,8.1-5.2s1.5-1.4,2.3-1.7Z"/>
  <path d="M163.5,76.9c.2,1.1-.8.3-1.3.3s-.1.4-.3.5c-2.7.7-5.4,1.4-8.1,2.4-4.4,1.7-8.5,4.1-12.7,5.9.1-.4.6-.7.9-.9,2.2-1.4,5.8-3.2,8.2-4.2s12.4-4.6,13.3-4Z"/>
  <path d="M54.4,87.4l-16.3-11.9c3.8,1.6,6.8,4.6,10,7s6.7,4.5,6.3,4.9Z"/>
  <path d="M64.6,27.9c-.7.1-.5-.1-.7-.6-.8-1.9-1.2-4-2.3-5.7l-2.8-4.5c3,2.9,4.8,6.8,5.8,10.8Z"/>
  <polygon points="112.5 91.3 116.4 86.2 119.2 83.3 114.9 89.4 112.5 91.3"/>
  <path d="M25,75.8c-2-1-4.1-2.1-6-3.3s-2.5-1.7-3.5-2.8l9.4,6.1Z"/>
  <path d="M35,73.6l-7.5-4.1c2.7.5,5.3,2.5,7.5,4.1Z"/>
  <path d="M33.1,80.8c-2.6-1-4.9-2.8-7.2-4.4,2.5,1.1,5,2.7,7.2,4.4Z"/>
  <path d="M102.6,21c.5-2.2,1.8-4.4,3.3-6.1l-2.6,5.3-.7.8Z"/>
  <polygon points="113.1 60.8 111.1 53.6 112.7 57.5 113.1 60.8"/>
  <path d="M117,19.6c-.6-.1-.5-.6-.6-1-.3-1.2-.5-2.5-.8-3.7.4.2.9,1.3,1,1.7.3,1,.4,2,.4,3Z"/>
  <path d="M82.6,74.4c-.5,0-.3-.6-.3-1-.2-3.9.3-7.7.6-11.6l.8-3.2c-.5,5.3-1.4,10.5-1.1,15.8Z"/>
  <path d="M84.8,86.6l-1.5-4.4c.1-1.1-1-2.7-.3-3.6l1.8,8Z"/>
  <path d="M79.6,114.6c-3,2.9-7.9,4.6-11.9,5.5s-9.2.6-14.2-.3-9-1.9-13-3.9l14.3,3.4c6.9,2,15.1,0,21.6-2.9s2-1.4,3.1-1.7Z"/>
  <path d="M79.3,112.6c-.4.8-1.3,1.1-2,1.4-4.4,2.1-9.7,3.4-14.6,3.3l10.2-2.1,6.4-2.6Z"/>
  <path d="M83.7,107.6c0,0-1.1.4-1.4.6-1.6,1.1-3.1,2.5-5,3.3s-5.6,1.8-8.2,2.4l8.6-3.1,5.9-4.1v.8Z"/>
  <path d="M57.4,116.2c0,.5.2.6-.3.5-2-.4-4-.7-6-1.2l-5-1.5,11.4,2.2Z"/>
  <path d="M33.9,106.2c-1.8-.6-3.7-1.8-5.3-3,1.8.7,3.8,1.8,5.3,3Z"/>
</svg>