<?xml version="1.0" encoding="UTF-8"?>
<svg id="_レイヤー_1" data-name="レイヤー_1" xmlns="http://www.w3.org/2000/svg" version="1.1" viewBox="0 0 250 220">
  <!-- Generator: Adobe Illustrator 29.0.1, SVG Export Plug-In . SVG Version: 2.1.0 Build 192)  -->
  <path d="M34.8,82.6c-2.1-1.9-3.4-4.8-5.2-7-2.8-3.5-4.9-5.1-8.6-7.5s-2-1.8-1.5-.6,1.8,1.7,2.3,2.3c5.9,7.2,8.4,16.6,13.3,24.4s10,12.3,15.6,16.6,3.9,2.8,4.2,2.6l-5.9-8.3c-2.6-4.5-5.2-9-7.2-13.8s-5.2-17.8-8.8-21.7-2.7-1.4-2.3-2.5.5-.4,1-.5c5.7-.7,16.8,3.3,22.2,5.7,14,6.3,23.4,17,32.4,29.1,3.5,4.8,8.1,10.7,10.4,15.8s0,.9,0,1.4l-19.2-25.1c-9.8-11.5-26.8-23.1-42.3-24.4s-.6-.6-.5.2c4,4,4.6,9.7,6.5,14.8,4.9,13.5,11.2,24.4,21.8,34.2,6.5,6,10.5,7.7,18.8,9.9s3.5,1.9,5.1,2.3c2.2.7,6,1.5,8.3,2,3.8.8,8,.9,11.8.9-1.2-1.7-2.4-3.4-3.6-5.1-8.6-12.6-6.3-29.8,3.3-41.2s8.9-7.8,12.6-12.1,4-5.9,4.9-6.3.7.1,1,.4c1.4,1.4,2.6,4,4.1,5.6,2.3,2.4,5.3,4.4,7.8,6.6,4.8,4.4,9.4,10,11.8,16,.2.2.3.6.7.5s3.8-5.3,4.5-6.2c13.2-16.5,31-24,51.6-26.8,1.4-.2,9.1-.8,9.9-.3s.6.3.5.7-2.9,2.5-3.4,3.2c-9,10.2-11.2,25.3-17.9,37-10.1,17.5-29,30.3-49.8,30-1.3,0-2.4-.8-3.6-.8l-5.7,3.8c6.2,8.8,16,15.3,26,19,7.7,2.9,16.2,4.3,24.3,5.2s22.9.5,32.3,7.2c.4-.5-2.1-6.4-2.5-7.4-6.5-14.7-19.3-25.5-35.3-28.4-3.2-.6-6.7-.8-9.9-1.3s-1.6-.1-1.6-.5c11.2,0,23,2.5,32.5,8.5,9.7-.9,18.5-5.3,27.4-8.8s10.2-4.1,15.6-3.8c.7-.7-2.8-3.8-3.3-4.3-2.9-2.7-10.6-8.7-14.4-9.2-8.6-1.1-19.9.5-28.3,2.4s-6.8,2.1-10.3,2.5c.2-.4,1.3-.6,1.7-.7,6.8-2,13.7-3.7,20.8-4.5s11.6-.8,17.1.3c-1.1-1-3-1.8-4.4-2.3-3.9-1.2-9.7-.9-13.8-.6s-7.6,1.4-11.3,2l3.4-1.3c4.8-.9,9.9-1.6,14.8-1.6s2.6.6,3.9.3l-2.5-.8c-4.2-.9-10-1.4-14.3-1s-9,5.6-12.5,6.5-1.7.1-2.6.1c0-.7-.1-1.5.6-1.9,6.6-2.5,12.6-6.8,17.7-11.6,10.3-10,13-23.1,21.3-33.3s1.6-1.3,2.1-2,.6-.8-.1-.6c-15.5,9.1-19.6,29.2-34.2,39.3-.2,0-.2-.3-.1-.4.2-.4,3.4-2.9,4-3.4,10.4-10.1,15.5-25.2,27.3-34.8s6.7-4.6,11.2-4.2c.2.8-.2.5-.6.7-10.9,7.2-12.1,14.2-17.9,24.9s-9.1,13.9-15.7,19.2c4.1-.2,7.8-.5,11.9,0,10.1,1.3,21.6,9.3,28.9,16.2s5.2,4.7,4.6,5.6c-10,1.8-17.5,9.2-26.1,13.9-4,2.2-8.6,4.2-12.9,5.3,1.5,2,3.1,3.9,4.4,6.1,2.5,4.2,6.6,13.5,6.7,18.3s0,.6-.4.9c-2.3-1.3-4.1-3-6.9-3.2-7.1-.5-12.6,1.8-19.3,2.8-13.2,2-26.3.5-37.8-6.6l-5.4-3.7c3,10.4-1.7,19.5-8.5,27-5.2,5.8-11.8,9.8-16.5,16.3-.5.7-1.9,3.5-2.4,3.5-1,0-2.2-3.2-2.8-4.1-4.2-6.4-10.9-10.6-15.8-16.4-6.2-7.3-10.6-16.1-7.8-26-.3-.3-4.8,3.1-5.5,3.5-12.7,7.5-26.9,8.8-41.3,6.2-6.2-1.1-13.1-4.1-19.3-1.3s-2.2,1.7-3.6,1.7c-.6-.6.7-5.6,1-6.6,1.9-6.7,5.4-13.1,9.9-18.4-4.1-1.5-8.4-3-12.4-5-7.6-4-14.8-10.9-23-13.4s-3.8-.2-3.7-1.5,9.7-9.4,11.2-10.6c5.7-4.4,14.5-9.5,21.7-10.5s7.4-.3,11,.2c-1-2-3.1-3-4.6-4.4-10.3-10.5-12-26.8-23.1-36.6-1.2-1.1-2.7-1.8-3.8-2.8s-.4-1.2.9-1.2c7.3,0,14.8,9.5,18.6,15s1.9,2.8,2.5,4.2ZM211.1,67.1c-4.9-.2-10.4,1.1-15.2,2.1-16.2,3.7-30.8,11.2-41.1,24.7s-2.3,4.6-4.5,5.9c1.1,4.4,1.7,8.8,1.3,13.3s-1.2,6.9-2.1,9.6c-1.5,4.2-4.5,7.6-7.3,10.9,11.3-.6,22.6-3.1,32.1-9.4,20.9-13.6,22.9-34.1,34.2-54.2l2.5-3.1ZM137.9,134.3c5.7-4.1,9.6-10.5,10.8-17.5,1.8-10.5-.2-18.9-6.8-27.2s-12.4-10.4-17.4-17.1c-4.9,7.6-13.1,11.6-18.3,19-8.8,12.6-7.6,30.7,3.8,41.3-1.6-3.5-3.6-6.9-4.7-10.6s-1.1-5.1-1.6-7.6l.3-2.7c.1,2.6.7,5.4,1.3,8,1.1,4.3,4.3,12.2,7.4,15.3s2.2,1.9,2.4,1.7c-5-6.9-8.1-16.5-7.8-25.1s-.2-1.1.3-1c.3,8.3,2.7,18.9,8.1,25.4.7.8,1.4,1.7,2.5,1.6-5.8-8.1-6.9-18.1-6.9-27.9,0,0,.4.1.4.3.3.6.3,6,.5,7.3.6,5.6,1.9,11.2,4.5,16.2s3.1,5.3,3.5,4.7c-.5-2.3-1.7-4.3-2.4-6.6-1.8-5.9-2.5-13.5-2.7-19.7s-.2-4,0-5.5,0-.9.6-1c0,8.6.5,18.1,3.1,26.4.3,1.1,2,5.6,2.6,6.3s.5.4,1,.4c1,0,0-.9,0-1.4-.7-3.6-1.6-8.1-2-11.7s-.2-6.8-.6-10.2c.4,0,.5.8.5,1,.4,3.8.3,7.6,1,11.4s.9,3.3,1.3,5-.1,6.7,2.7,6.1c-.4-3.9.9-7.4,1.6-11.1s.6-4.5,1-6.7,0-1.1.5-1.1c0,6.4-2.7,12.5-2.6,19,1.2-.5,1.7,0,2.2-1.4,2.4-6.5,4.2-16.6,4.7-23.5s-.2-4.8,0-6.9,0-.9.6-1c.3,7.3-.4,14.6-1.9,21.8s-1.1,5.2-1.8,7.4-1.3,2.1-1.1,3.2l1.6-.8c2.4-5.4,4.2-10.6,5.3-16.4s.9-4.7,1-6.6.5-3.6.2-5.4l.6-4.2-.3,10.8c-.8,1.1-.2,1.9-.3,2.8-.8,6.7-3,13.1-6,19.1.8.8,3.7-4.1,4.1-4.7,3.5-6,5.1-13.2,6.4-20,.7-.6.4-.1.3.3-.6,5.5-2.4,12.9-4.8,17.9s-2.5,3.5-2.8,4.6,2.1-.9,2.3-1.1c4.8-5.3,7.6-15.2,8.9-22.1h.6c-.8,4.3-1.9,8.5-3.4,12.6l-4.3,8.8ZM60.2,118.7c-.9-.7-2.6-2.9-3.4-3.3s-2.9-.6-4.3-1.1c-3.2-1.3-4.9-4.3-8.6-4.7s-8.3,0-11.9.8-1.6.2-1.8.7c2.9-.3,6.1,0,9,.3s6.2.7,8.8,1.2,1.1,0,1.1.5c-.6,0-1.2,0-1.9,0-7-.5-15-3.3-21.7-.4l-3.5,1.9c8.2-1.2,16.6-.3,24.7,1.2l7.7,2.2c-9.5-1.7-19.1-4.1-28.9-3.5s-9.6,3.2-13.9,6.5-6.4,5.6-6.9,6.9.1.4.4.4c2.9.4,5.1.3,8.1,1.1,11.4,3,22.2,9.8,34.1,11.7,9.2-6.1,20.2-8.5,31.2-8.5,0,.4-.5.4-.8.5-3.6.9-7.6.9-11.3,1.7-18.1,3.8-30.7,17.8-35.6,35.2.5.5,3.5-1.6,4.2-2,11.4-5.3,25.5-4.4,37.8-6.4s28.5-7.9,37.4-18.3c.5-.6,3.6-4.4,3.3-4.9l-5.4-3.7c-10.6,2.2-22.1-1.7-32-5.6s-11.1-5.9-16.2-10.4ZM45.4,142.6l-36.5-11.8,21.8,13.1c2.1.6,8,4,9.9,3.5s.9-.6.8-1.1c-4.5-1.1-9.5-3-13.6-5.3s-2.9-2.1-4.4-3c-2.6-1.5-5.7-2.6-7.8-4.6,5,1.7,8.9,5.2,13.4,7.7,2.7,1.4,6.5,3.2,9.5,4s4.5,1.6,5.2-1.1c-2.6.2-5.8-1-8.3-1.9s-6.2-2.3-8.6-3.4-.8-.3-.9-.7c4,1.1,7.8,3,11.7,4.2s4.6,1.6,6.1,1.7,2.1-.9,1.7-1.3ZM240.7,130.8c-12.4,2.9-23.6,9.7-36.3,11.5-.7,1.6,1.7,1.5,2.8,1.4,3.9-.3,7.9-2.8,11.7-3.4l-8.1,3.2-4.2.8c-.4.3,1.4,2.2,2.1,1.7l12.5-4.6c-3.6,2.6-8.4,3.5-12.6,4.9-.1.6.2,1.4.9,1.4s5.2-1.6,6.1-1.9c7.2-2.8,13.4-7.6,19.9-11.7s3.9-1.7,5.3-3.2ZM148.2,173.6c0-5-1.5-9.8-2.4-14.6-2.3-7.5-6.9-13.9-12.1-19.7-4.1,2-9,2.7-13.4,1.9s-4.8-1.8-5.1-1.6c-.8,2.9-3.2,4.7-4.7,7.3-3.1,5.1-5.5,10.7-6.8,16.5s-1.3,7.3-1.8,11c-.5-.1-.6-.5-.6-1,0-2.1.5-5.3.9-7.4.6-3.5,1.9-7.1,3.4-10.3-.5-.5-2.6,2.4-2.8,2.8-4,6.3-4,14.8-.8,21.4,5.3,11.1,16.2,16.7,22.5,26.9,5.9-8.4,14.8-13.7,20.8-22,4-5.6,5.9-11.3,4.9-18.3s-2.2-8-5.1-10.8c1.2,3.5,2.4,6.9,3.1,10.6s.9,5,.7,7.1-.2.9-.6.4ZM145.5,150.8c-.5-.5-1.1-1.3-1.8-1.6.5,1.8,2,2.9,3,4.3,2.1,2.9,4.6,6.6,7.2,8.9,10.8,9.3,26,11.9,39.9,10s12.3-2.7,18.6-3.1c-.4-.7-1.6-.8-2.3-1-21.8-5.5-45.9-1.3-64.5-17.5ZM74.4,167.3c5.4-1.4,10.6-3.2,15.6-5.5,6-2.7,12-5.4,15.8-10.9s.8-.6.3-.9c-6.7,5.2-14.2,8.9-22.3,11.3-12,3.7-24.3,3.3-36.5,5.4-2.3.4-6.7,1.2-8.8,2.1s-.4,0-.4.6c5.2.2,10.2,2.1,15.2,2.8,13.7,2,28.6.3,40.2-7.6s5.9-5.2,8.4-8.3c0-.2-.2-.2-.4-.1-3.1,1-8.1,4.5-11.5,6s-10.7,4.5-14.7,5.1-1,.3-.9-.2Z"/>
  <path d="M111.2,48.1l-1.5-.4c-.9-2-1.6-4.1-2.9-6-6.4-9.3-17.9-19.1-28.3-23.7s-1.8-.6-2.1,1.5-.4,1.2-.4,1.8c-.1,2.6,3.4,6.6,3.1,9.6l.6-1.1c0,.5,0,1,.1,1.4,1.9,6.6,3.9,13.1,5.4,19.9s1.1,4.3,1.1,6.6c-.4,0-.3-.5-.4-.9-2.9-11.2-5.3-22.6-9.6-33.3l-1.2,3.8c-1,4.2,1,8.7,2,12.9s1.7,7.7,2.1,11.5l-4.6-19.8c-.6.1-.5.6-.6,1-1.1,3.6,0,4.8.5,8.1s.7,4.6.9,6.9c-.5-.2-.6-1.5-.7-2-.6-2.8-1.1-5.8-1.6-8.6l-1.3,6.5c-.3.7-1,.6-1.5.3-.3-.6.7-6.9.9-8.1.8-4.6,2.7-9.8,3-14.2s-.3-6.5.3-7.2c.7-.8,1.6-.3,2.3,0,9.5,3.6,22.4,14,28.6,22,2.5,3.2,5.8,7.3,5.9,11.5Z"/>
  <path d="M176.7,44.4c0-3.9-.7-8.3-1.5-12.1s-.4-1.7-.8-1.9c-1.3,5.1-1.8,10.6-3.1,15.7s-.3,1.4-.6,2,.2.8-.6.6c.9-5.1,1.9-10.2,3-15.2s2-4.9.6-8c-.9,1.8-1.5,4.1-2,6-1.4,5.5-2.3,12.2-4,17.5s-.2,1.6-1,1.4c1.5-9.1,4.4-17.8,6.8-26.6-.5-1.7-.2-4-.5-5.7s-.1-.5-.4-.7c-5.8,2.8-11.7,6-16.6,10.1-6.5,5.4-9.1,10.4-11.9,18.2-.2.7-1,4-1.1,4.2s-.6.2-.5-.4c.9-4.7,3.2-8.8,5.1-13.1-2.1,2.1-3.8,4.9-5.2,7.6s-1.5,4.5-2.7,4.2,0-2.4.4-3.1c4.4-10.5,13.4-19.2,23-24.9s10.8-5.9,11.9-5.9c1.7,0,.5,1.4.4,2.5-.6,7.5,2.6,14.8,3.2,22.1s.7,5.5-1.7,5.6Z"/>
  <path d="M106.9,85.7c-2,.3-2.4-2-3.3-3.4-8.1-12.6-19.5-20.1-32.7-26.7-.6,0-.4,0-.4.4-.2,1.6.5,3.5.6,5.2.3,6.2-.7,12.3-.9,18.5-2.3-.9-1.8-3.2-1.7-5.3.2-6.3,1.1-10.6-.1-17.1s-2-6.7-1.5-7.7c.3-.5,1,.2,1.3.5,10,7.7,22.3,12.6,30.9,22.2,3.2,3.6,7.1,8.7,7.9,13.5Z"/>
  <path d="M125,39.8l-.6.2c-.9,1.6-2.1,3.1-3.3,4.4-6.1,6.8-13.1,11.8-18.1,19.8-1,1.6-1.8,4-2.9,5.4s-1.8-.3-1.4-1.7c.5-2,3.9-6.7,5.2-8.6,6.2-8.6,15.2-14.3,20.7-23.6.5-.1.7.1,1,.4,1.1,1,2.6,4.4,3.9,5.9,5,6.1,14.3,11.1,17.6,18.8.7,1.6,1.2,3.4-1.3,2.4-1.5-2.3-3.1-4.8-4.9-6.9-4.9-5.9-11.9-10.1-15.9-16.7Z"/>
  <path d="M178.7,70.5c-1.2-5.8-1.8-12.2-.3-18.1-15.3,2.1-28.4,10.6-38.8,21.7s-3.3,5.3-4.9,3.5c10.4-15.3,28-25.9,46.4-28.2l.6.4c-1.7,4.4-2.2,8.5-2,13.2s1.2,6.4-.1,7.3-.6.3-1,.3Z"/>
  <path d="M74.7,51.6c-.4.4-6.4-4.7-7.1-5.1-4.6-3.2-10.2-6-15.3-8.2s-8.4-3.4-8.9-3c3.6,5.9,4.6,13.4,5.5,20.2s.3,8.8,1.4,12.9c-1.7.6-2.2-.3-2.5-1.8-2.2-9.6-.4-20.9-6-29.9s-2.7-2.7-2.9-4.4c.6-.9,7.3,1.3,8.5,1.7,7.6,2.6,21.3,9.1,26.3,15.4s1.4,1.9,1.2,2.1Z"/>
  <path d="M125.8,3.4c.5.4,2.2,3.5,3,4.4,5.6,6.8,13.5,14.1,16.3,22.8s.7,1.4-.4,2.1l-.7-.4c-2.5-4.2-4.8-8.5-7.6-12.5s-7.8-9.3-11.9-13.8c-2.2,4.8-6.6,8.3-9.8,12.5s-4.8,7.2-6.5,10.5-1.7,4.4-1.9,4.6c-.6.4-1.4,0-1.4-1,0-2.3,3.7-8.6,5.1-10.7,4.2-6.6,10-11.5,13.8-18.3.5-.6,1.4-.5,1.9,0Z"/>
  <path d="M200.2,64.2c-.4-1.1-.4-2.4-.3-3.6.2-4,1.1-9.7,1.9-13.6s2.2-8.3,4.7-11.8c-7.6,1.4-14.9,4.6-21.7,8.3s-5.7,4.3-9,4.2c1.1-1.9,3.4-2.5,5.3-3.6,6.7-4.3,19.4-11,27.4-11.7s2.6-.3,2.4.7c-4.6,4.6-6.8,12.1-7.7,18.4-.3,2-.8,11.5-1.9,12.5s-.6.3-1,.3Z"/>
  <path d="M73.6,124.5c-1.4-.5-2.7-1.4-3.9-2.3-6.5-5-12.8-13-17.2-19.8s-7.2-12.7-9.9-19.5c2.8,3.4,4.1,7.8,6.3,11.7,6.3,11.5,14.7,21.6,24.7,30Z"/>
  <path d="M97.7,131.7c0,.5-.6.3-.9.2-7.7-1.7-16.6-9.6-21.9-15.2s-12.4-15.6-16.7-24.1-2-4.3-2.7-6.3c1.5,1.8,2.2,4.2,3.3,6.3,6.9,13.1,19.5,29.4,32.7,36.5s4.1,2.1,6.2,2.5Z"/>
  <path d="M80.5,127.1c-.7,0-1.3-.5-1.9-.8-3.1-1.6-10.3-8.4-12.6-11.3-7.3-9-13.5-18.9-18-29.6,2.2,2.9,3.6,6.5,5.4,9.7,5.3,9.4,13.9,21.5,22.2,28.4,1.5,1.3,3.6,2.1,4.9,3.6Z"/>
  <path d="M194.5,110.1c2-2.1,4.7-3.6,6.9-5.6,10.6-9.4,15.7-23.7,25.3-34,0,.5-.4.8-.6,1.2-2,2.9-4.3,5.6-6.3,8.7-7.4,11.2-11.9,21.2-23.6,28.9-.5.3-1,.8-1.6.8Z"/>
  <path d="M96.6,64.2c-.6-.1-.5-.6-.6-1-.9-3.7-1.4-7.6-2.4-11.4-2.1-7.9-5.5-18.7-9.1-26-.8-1.6-2.1-3-2.6-4.7,1.1,1.1,2.1,2.6,2.8,3.9,1,2,2.2,4.9,3,7,4.2,10.2,7.7,21.1,8.8,32.2Z"/>
  <path d="M97.4,129.7c0,.5-.6.3-.9.2-1.3-.5-3.2-1.3-4.4-1.9-7.4-4-14.7-13.1-19.7-20s-5.7-8.6-7.5-13.3c2.1,2.8,3.4,6.2,5.3,9.2,3.6,5.5,11.1,15.4,16.2,19.4,3.2,2.5,7.1,4.9,10.9,6.5Z"/>
  <path d="M98.8,60.7c-.5,0-.5-.6-.6-1-.9-2.8-1.2-6.3-2-9.2-2.4-9.1-6.5-17.7-9.7-26.6,1.9,2,2.5,5.4,3.6,8s2.1,4.1,2.9,6c2.9,7.2,5.3,14.9,5.9,22.7Z"/>
  <path d="M93.7,63.6c-.5,0-.5-.9-.6-1.3-.4-1.4-.5-2.9-.8-4.3-2.1-8.6-4.7-18.1-7.8-26.4-1.2-3.3-2.8-6.4-4-9.7,1,1.1,1.8,2.9,2.4,4.3,2.2,5.1,4.4,11.2,6,16.4s3.8,13.8,4.8,20.9Z"/>
  <path d="M89.9,60.2l-9.8-35,3.5,10.1c2.4,8.2,4.7,16.5,6.2,24.9Z"/>
  <path d="M147.7,56.7c-.9.2-.6-.7-.6-1.3.1-3.7,2.1-9.1,3.5-12.6s4.2-10.7,7.5-14.8c-1.2,2.6-2.6,5-3.8,7.6-2.9,6.6-5.4,14-6.6,21.2Z"/>
  <path d="M150.3,58.7c-.5,0-.3-1.2-.3-1.6.5-6.5,3.3-13,5.3-19.1l4.4-9.2c-.8,2.6-2.1,5.1-3.1,7.7-2.7,7.2-5,14.6-6.4,22.2Z"/>
  <path d="M101.4,58.2c-.8.1-.5-.1-.7-.6-.6-1.9-.9-4.3-1.4-6.3-1.9-6.8-4.3-13.3-7.1-19.8.9.8,1.4,2.3,2,3.3,3.5,7.3,6.3,15.4,7.2,23.4Z"/>
  <path d="M153.7,57c-.7.1-.6-.1-.6-.7.4-7.1,4.3-15.1,6.4-21.8l1.7-3.4c-2.6,8.6-5.9,17-7.5,25.8Z"/>
  <path d="M40,98.4c-6.1-6.4-8.1-15.3-12.9-22.5l-4-5.6c2,1.6,3.7,3.8,5.1,5.9,3.2,4.8,4.6,10.1,7.4,15s3.3,4.6,4.5,7.2Z"/>
  <path d="M104.3,55.3l-.9-.4c-1.7-6.2-3.5-12.4-6.2-18.2s-1.8-3-2.3-4.7c1.2,1.1,2.2,3,2.9,4.4,3.1,5.9,4.8,12.5,6.6,18.9Z"/>
  <path d="M163.5,51.6c0-1.1.2-2.1.4-3.2,1.2-5.8,3.1-13.1,5.3-18.6s.2-1,.6-1l-5.3,21-1,1.7Z"/>
  <path d="M83.1,55.9l-7.5-29c.4.2.6,1.2.8,1.7,2.9,8.9,5,18.1,6.7,27.3Z"/>
  <path d="M89.1,130c0,.5-.6.3-.9.2-.9-.4-2.8-1.6-3.8-2.2-2.5-1.5-6.3-4.1-8.4-6s-4.5-5.4-7-7.6l-.6-1c3.1,2.1,5.2,5.3,7.9,7.7s8.5,6.5,12.8,8.9Z"/>
  <path d="M160.9,53.3c-.9.2-.6-.7-.6-1.3.2-5.3,3.6-12.7,5-17.9l1.6-7.8c-.3,9.3-5,17.8-6,27Z"/>
  <path d="M156.9,55c-.1-2.6.6-5.2,1.3-7.8,1-3.9,2.5-8.4,3.9-12.2s.4-1.4.9-1.6l-6,21.5Z"/>
  <path d="M144.2,53.3c1.8-7.7,4.8-15.5,9.2-22.1-2.5,5.3-5,10.6-6.9,16.2s-.8,3.7-1.4,5.2-.2.8-.9.7Z"/>
  <path d="M90.2,103.2c-6.4-9-8.7-20.1-12.1-30.4.5.3.8,1.4,1,2,2.3,6.4,3.8,13.1,6.5,19.3s3.3,6,4.6,9.1Z"/>
  <path d="M47.7,105.5c-.2.2-1.9-1.2-2.1-1.4-2.8-2.5-3-5.1-4.7-8.2s-3.1-4-3.8-6.4c3.2,3.3,4.8,7.9,7.3,11.5s2.7,2.7,3.3,4.6Z"/>
  <path d="M98,33.2c3.9,4.6,6.6,11.5,8.1,17.3s.8,2.3,0,2.2-.9-2.5-1.1-3.2c-.8-2.7-1.9-5.9-3-8.5s-2.9-5.1-4.1-7.8Z"/>
  <path d="M96.8,107.3c-.8-.3-1-1.2-1.4-1.9-1.8-3.5-3.9-8.4-5.3-12.2s-2.4-6.5-3.3-9.8l4.3,10.8,5.8,13Z"/>
  <path d="M105.2,131.1c0,.5-.6.2-.9.2-1.7-.3-3.8-.8-5.3-1.6-2.8-1.4-8.6-5.6-10.8-7.9s-1.3-1.5-1.4-2.2c5.2,4.8,11.1,10.3,18.4,11.5Z"/>
  <path d="M135.9,42.7c-.3-6.3-1.1-12.5-2-18.7l1.3,5.4c.6,3.8.8,7.3.9,11.1s.8,1.7-.3,2.2Z"/>
  <path d="M103.7,129.4c-4.2-1.1-8.2-3.9-11.1-7.2s-1.7-2.1-2.1-3.2c2,1.7,3.5,4.1,5.6,5.7s5.2,2.8,7.6,4.6Z"/>
  <path d="M133,41.2c-.5,0-.5-1.2-.6-1.6-.3-3.2-.3-6.5-.6-9.8s-.9-4.9-.9-7.3l1.1,6.2.9,12.5Z"/>
  <path d="M115.2,41.8h-.9s.3-5.9.3-5.9l1.7-10.2c-.7,4.5-1,8.9-1.1,13.4s-.5,1.7,0,2.7Z"/>
  <path d="M99.1,98.7c-.8-.5-1.3-1.4-1.7-2.2-2.1-3.9-3.6-8.7-5.2-12.7l6.3,13.1.6,1.8Z"/>
  <polygon points="200.5 97.8 207.9 86.4 210.8 82.6 203.7 93.7 200.5 97.8"/>
  <path d="M82.2,113.3c-2.4-2.7-5.1-5.9-7-8.9s-1-1.5-1-2.3l5,6.6,3,4.6Z"/>
  <path d="M139.3,39.2c-.5,0-.5-1-.5-1.3-.7-3.9-.7-8-1.5-11.9.4,0,.3.5.4.9,1,4,1.3,8.2,1.6,12.3Z"/>
  <polygon points="129 35.8 128.1 22 128.7 24.7 129.6 34.5 129 35.8"/>
  <path d="M124.3,214.1c.8-.2,1.6.5,1.8,1.3l-1.6,1.6c-1.5-.3-1.7-2.4-.2-2.8Z"/>
  <path d="M111.8,40.9c-.5-.1-.6-.6-.6-1,0-.9.2-2.7.3-3.7.2-2.7.7-5.6,1.2-8.3s0-1.7.5-1.9c-.5,5-1.7,9.9-1.4,14.9Z"/>
  <path d="M174.1,46.4c-.5,0-.3-.7-.3-1,0-1.2.4-2.3.3-3.4l1.1-5.9c.1,3.5-.7,6.9-1.1,10.3Z"/>
  <path d="M143.7,84.9c1.4-2.9,2.6-6,4.6-8.6l-3.7,8-.9.7Z"/>
  <path d="M161.5,71.9c1.4-2.9,2.2-6.5,4.3-8.9l-3.2,7.5-1.1,1.4Z"/>
  <path d="M154.3,86l1.2-3,3.1-5.9c-1.1,3-2.4,6.3-4.3,8.9Z"/>
  <path d="M86.2,81.7l-3.7-9.5c.8.5,1,1.7,1.4,2.5.9,2.2,1.7,4.6,2.4,7Z"/>
  <path d="M125.3,20.8c.5,0,.3.6.3,1,.1,3,.3,6,.3,9-.3,0-.6-1.2-.6-1.3v-8.8Z"/>
  <path d="M108.6,49.8c-.5,0-.5-.6-.7-.9-.9-2.1-1.5-4.9-2.2-7.1l2.1,5.2.7,2.9Z"/>
  <path d="M79.3,27.4l-2.3-7.5c.4,0,.6.8.7,1.2.8,1.9,1.5,4.3,1.6,6.3Z"/>
  <path d="M166.9,72.5l-.2-.9,2.5-6c-.3,2.4-1.6,4.6-2.3,6.9Z"/>
  <path d="M101.4,91.8c-1.5-1.8-2.4-4.4-3.2-6.6l2.3,4.2.9,2.4Z"/>
  <polygon points="148.2 90.6 148.2 89.5 150.8 83.4 148.2 90.6"/>
  <path d="M168.6,27.7c-.5,0-.3-.7-.2-.9.3-1.3,1-2.7,1.5-4l1.3-2c-.4,2.4-2.3,4.4-2.6,6.9Z"/>
  <polygon points="119 35 118.4 36.9 118.4 34.7 119 29.2 119 35"/>
  <path d="M154,75.7c-.6,1.4-1.1,2.8-1.7,4.2s-.5,1.4-.9,1.5c.5-1.7,1.2-3.5,1.9-5.1s-.2-.8.7-.6Z"/>
  <path d="M77.6,85.2c-.5-.1-.7-1.1-.9-1.6-.4-1-.8-2.2-.9-3.3.4,0,.4.5.5.8.5,1.3,1,2.7,1.2,4.1Z"/>
  <path d="M232.4,118.2c0,.5-.7.3-1,.3-1.8-.1-3.9-.7-5.7-.9-7.8-.5-17.7,1.2-25.5,2.7s-10.2,2.6-15.4,3.1c0-.4.5-.4.8-.5,1.5-.4,3.1-.5,4.7-.8,10.9-2.4,23.9-5.7,35.2-5,2.4.1,4.7.7,7,1.1Z"/>
  <path d="M231.2,120.5c0,.5-.7.3-1,.3-4.2.2-8.4,0-12.6.3-8.7.8-17.6,2.9-26.3,4,.3-.4,1.4-.6,1.9-.8,1.8-.5,3.9-.8,5.8-1.1,10.4-1.8,21.6-3.3,32.2-2.7Z"/>
  <path d="M160.6,150.1c-6.7-3.2-13.5-6.7-19.2-11.5l19.2,11.5Z"/>
  <path d="M230.9,123.1l-21.8,2c-.1-.9.2-.5.7-.6,1.9-.5,3.9-.4,5.8-.9l15.4-.6Z"/>
  <path d="M152.6,149.5c-4.3-2-8.8-5-12.2-8.3s-1.6-1.4-1.3-1.7c4.1,3.8,8.9,6.8,13.5,10Z"/>
  <path d="M160.6,144.9c0,.6-1.2,0-1.5,0l-12-5.4c4.7,1.3,9,3.6,13.5,5.5Z"/>
  <path d="M169.5,147.4c-1.5-3.4,4.2-3.3,2,0h-2Z"/>
  <path d="M230.1,130v.3c-.6-.3-1.6.3-1.9.3h-9.6v-.3c.6.3,1.6-.3,1.9-.3h9.6Z"/>
  <polygon points="207.1 125.4 202.9 126.4 195.9 127.4 201.5 126 207.1 125.4"/>
  <path d="M202.8,156.7l-8-5.2c2.9.9,5.9,3.1,8,5.2Z"/>
  <path d="M166.6,138.6l-1.3.2-7.1-1.4c2.8-.2,5.5,1,8.3,1.1Z"/>
  <path d="M168.5,135.1l2.2.6c-2.6,0-5.3-.2-7.9-.3s-1.1.2-1-.3h6.7Z"/>
  <polygon points="159.7 140.6 158.6 140.7 151.7 138.6 159.7 140.6"/>
  <path d="M180,150.3c-.4.3-1.4.3-1.9,0v-1.1c.8-.5,1.6-.4,2.2.4-.2.2-.2.5-.3.7Z"/>
  <path d="M218,127.1l-7.5,1.1c.3-.7,1.5-.7,2.2-.8,1.7-.2,3.6-.3,5.3-.3Z"/>
  <path d="M206.8,128.8c0,.5-1,.4-1.3.5-1.7.3-3.5.7-5.3.6.2-.4,1.4-.4,1.9-.5,1.5-.2,3.1-.5,4.7-.6Z"/>
  <polygon points="222.3 133.4 219.6 134 216.6 134 220.3 133.3 222.3 133.4"/>
  <path d="M57.2,121.1c0,.5-.6.3-1,.2-7.3-.6-14.8-3.1-22.2-3.7-2.9.1-5.8-.2-8.6,0s-4.8.7-7.2.9-1.1.2-1-.3c2.6-.1,5.1-.9,7.6-1.1,4.8-.5,9.5-.1,14.3.7s12,2.5,18,3.4Z"/>
  <path d="M50.9,123.1c0,.5-1.5.3-1.9.3-4.4-.3-9-1.9-13.5-2.3-4.2-.3-8.4-.1-12.6-.3s-1.1.2-1-.3c5.8,0,11.6-.2,17.3.6s7.7,2,11.7,2Z"/>
  <path d="M110.1,140.6c.6.5-8.2,6.6-8.9,7-1.2.8-2.6,1.7-4,2.2l.8-.8,12.2-8.4Z"/>
  <path d="M79.3,147.4l-2.3-.4c-.7-3.5,3.7-2.7,2.3.4Z"/>
  <path d="M58.6,127.4c0,.5-1.2.3-1.6.3-3.4-.3-6.8-1.4-10.3-1.2l-3.3-.8,15.2,1.7Z"/>
  <path d="M55.5,130c0,.5-1,.3-1.3.3-4.1-.3-8.2-.6-12.3-1.2-4-1.7-8.7-1.8-13-1.9s-1.1.2-1-.3c5.8-.4,11.3.9,16.8,2.3l10.7.9Z"/>
  <path d="M106.9,140.3c-3.5,2.7-7.8,5.3-12.1,6.6l12.1-6.6Z"/>
  <path d="M68.9,148.7c1.6-.4,2.1,1.8.7,2.2s-2.1-1.8-.7-2.2Z"/>
  <path d="M98,141.7l-9.5,3.7c2.6-2,6.3-2.8,9.5-3.7Z"/>
  <polygon points="62.1 125.1 60.5 125.3 53.5 123.6 62.1 125.1"/>
  <path d="M43.1,125.4c0,.5-.7.3-1,.3-1.4-.2-2.9-.8-4.4-1-4.1-.6-7.4-.5-11.4-.7s-1.1.2-1-.3c6-.2,12,.2,17.8,1.7Z"/>
  <path d="M32.2,130.2v.3h-8.8c-.3,0-1.3-.6-1.9-.3v-.3c.7-.3,1.8.3,2.2.3h8.5Z"/>
  <path d="M54.6,132.8c0,.5-.7.3-1,.3-2.7.1-5.5-.3-8.2-.4,0-.5,8.4.4,9.2.1Z"/>
  <path d="M17.9,125.4v.3h-5.3c-.4,0-1.5.8-2.2.6,0-.4,1.8-.9,1.9-.9h5.6Z"/>
  <path d="M55.2,150.9l-.9.7-4,2.1c1.2-1.4,3.2-2.2,4.9-2.9Z"/>
  <path d="M124.4,89.8c.5,0,.3.6.3,1,.2,4.3,0,8.9,0,13.2s.3,1.5.3,2.3-.3,2.2-.3,3.2c0,5,.2,10.2,0,15.2s.2,1.1-.3,1v-35.9Z"/>
  <path d="M155.1,128.5l5-2.9c12.2-8.6,20.2-21.1,27.1-34.1l4.7-9.5-3.5,8.4c-7.1,13.8-15.7,28.5-29.5,36.6-1.1.7-2.5,1.4-3.8,1.5Z"/>
  <path d="M155.1,130.5l3.4-1.4c14-7.7,23.1-20.2,30.9-33.7,2.2-3.9,3.9-8.1,6.6-11.7-2.6,6-5.8,12-9.2,17.6-6.6,10.9-15.7,21.9-27.2,27.9-1.3.7-2.9,1.2-4.3,1.3Z"/>
  <path d="M186.7,84.3c-1.8,5.1-4.2,10.2-6.8,14.8-5.4,9.4-13,19.6-21.9,25.8s-2.1,1.5-3.1,1.9c2.7-2.6,5.8-4.9,8.5-7.5,9-8.5,15.5-18.9,20.8-30.1.6-1.3,1.1-3.1,1.8-4.3s.2-.8.9-.7Z"/>
  <path d="M172.9,122.8l2-.7c-3.6,2.6-7.7,4.8-11.7,7s-.7.6-.9.2c2.5-1.9,5.3-3.7,8.1-5.1s2.6-2.1,4.1-3.7c7.2-7.9,13.3-16,18.5-25.5l9.2-17.9c-.3,1.3-.9,2.6-1.5,3.8-1.6,3.5-3.5,7.2-5.3,10.5-4.8,9.2-9.8,17.5-16.7,25.3-1.9,2.1-3.8,4.1-5.9,6Z"/>
  <path d="M179.3,118.8c-.3-.4,2.5-2.9,2.9-3.3,2.5-2.9,4.7-6,7.1-8.9l5.8-9.6c-1.4,3.6-3.4,7.4-5.6,10.6s-9.5,12-10.2,11.2Z"/>
  <path d="M149.7,124.8c-.3-.3,1.4-1.9,1.7-2.2,4.3-3.6,8.9-7.9,12.3-12.4,2.1-2.7,3.6-6.3,6-8.8l-.5,1.1c-5.5,8-11.3,16.8-19.6,22.1Z"/>
  <path d="M153.4,116.5c.3-2.2,2.5-3.7,3.7-5.3,2.1-2.8,4-5.7,6-8.6l4.3-7.6c-.8,2.7-2.5,5.5-4,7.9-2.9,4.7-6.4,9.5-10.1,13.6Z"/>
  <path d="M146.5,129.4c2.2-2.1,5-3.3,7.4-5s6.1-5.7,9.2-8.5c-.3.8-1.3,1.9-1.9,2.6-3.9,4.1-7.8,7.4-12.8,10.1s-1.3.8-1.9.8Z"/>
  <path d="M158.9,100.1c-1.9,2.3-2.7,5.5-4.9,7.5-.1-.5.2-.8.4-1.2.7-1.5,2.4-4.6,3.4-5.8s.5-.6,1.1-.5Z"/>
  <path d="M174.1,94.3l-.2-.9,3.6-6.9c-.2,2.8-2.5,5.1-3.4,7.8Z"/>
  <polygon points="154 130.8 150 132.1 147.1 132.5 154 130.8"/>
  <path d="M146.8,131.1l3.6-1.7c.3-.4,1-.2.9,0s-3.9,1.6-4.6,1.6Z"/>
  <path d="M129.6,143.2c.9,6.2,2.4,12.3,3.1,18.6,1.1,9.5,1.6,22.3.6,31.8,0,.6-.2,1.5-.7,1.9,0-2.5,0-5.1.1-7.6.3-8.8,0-17.9-.9-26.7s-1.8-11.8-2.8-17.6.2-.3.5-.4Z"/>
  <path d="M125.3,146.8c0-.6-.6-1.6-.3-2.4l.6,2.2c-.2,1.8.2,3.7.3,5.4.5,15.3.1,30.6,0,46l-.6,4.4v-55.6Z"/>
  <path d="M119,196.9c-.5,0-.5-.6-.6-1-.4-1.3-.7-3.5-.8-4.9-1.1-10.6.5-21.3,1.1-31.9l2-13.1c-1,16.9-4.2,33.9-1.7,50.8Z"/>
  <path d="M122.7,200.6c-.7-.3-.7-1.7-.8-2.5-1.5-10.3-.5-22.9,0-33.3s.3-11,.7-16.5c0,1.1.4,2.5.4,3.6,0,14.1-1.5,28.4-.9,42.5,0,2,.4,4.2.6,6.2Z"/>
  <path d="M136.2,192c.2-1.4.6-3.3.6-4.7,0-8.6-.6-17.6-1.8-26.1s-2.3-12.2-3.4-18.3l1.6,4.9c2.5,13.1,5.3,27.5,4.2,40.9s-.3,2.7-1.2,3.3Z"/>
  <path d="M114.9,193.1c-.5-.3-.9-1.5-1-2.1-.1-.8-.2-1.3-.2-2.1-.6-11.3.6-23.6,2.7-35.2l1-2.9c-1.6,14-4.4,28.1-2.6,42.2Z"/>
  <path d="M127.3,143.7c0,.5,0,1.1,0,1.6,1.8,7.8,2.4,16.4,2.6,24.4s0,19.3-.6,28.9c-.7.1-.6-.1-.6-.7,0-2.2.5-4.9.6-7.2.4-13.5-.3-26.9-1.7-40.2-.2-2.2-.1-4.5-.9-6.6h.6Z"/>
  <path d="M111.2,188.5h-.9c-1.1-10.3.6-20.6,2.4-30.7l1.6-5.4-3.4,24.3.3,11.9Z"/>
  <path d="M140.8,188.3h-.9c.7-1.6,0-3.2,0-4.7-.2-5.1-.3-10.1-.9-15.2s-2.8-12.9-3.7-19.4l3.3,12.3c1.8,8.9,2.3,17.9,2.1,27Z"/>
  <path d="M143.1,183.9c0-.4.2-.8.2-1.2-.4-5.9-.7-11.7-1.7-17.5s-3.2-11.2-4.2-16.9l3.6,10.8c1.3,6.3,2.7,12.7,3,19.1s.2,3.8,0,4.9-.3.8-.9.7Z"/>
  <path d="M112.3,151.8c-2.3,9.1-4.2,18.4-4.9,27.7s.2,2.8,0,4-.2.9-.6.4c-.5-10.6,1.8-21.4,4.8-31.5s-.2-.8.6-.7Z"/>
  <path d="M104.6,179.3c-.4.5-.5,0-.6-.4-.1-1,0-2.7,0-3.7.3-6,1.8-12.1,3.4-17.8l3.4-8.2c-.7,3.1-2.2,5.9-3,8.9-1.9,6.7-2.9,14.3-3.3,21.2Z"/>
  <path d="M146.8,178.8l-.9-.7c0-9.5-2.9-18.7-5.7-27.7l2.6,5.9c2.3,7.3,3.7,14.9,4,22.5Z"/>
  <path d="M96.8,161.5l-.8.8c-10.1,5.3-20.6,9.5-32.2,9.3,0-.5.4-.4.7-.5,2-.4,4.6-.2,6.9-.4,9.1-1.1,17.3-5.4,25.5-9.1Z"/>
  <path d="M74.7,165l-4.2,1.1c-2.4,0-5,.6-7.4.5s-1.1-.4-1.7-.4c-1.1,0-2.2,0-3.3,0,0-.5.7-.3,1-.3,2.1,0,4.3.3,6.3.2,3-.1,6.3-1.1,9.4-1.1Z"/>
  <path d="M69.8,168.4l-3.9.4-4.6-.2-6.2-1.1c4.9.5,9.7,1.2,14.6.9Z"/>
  <path d="M63.8,170.7c-.2.7-1.6-.3-1.4.9l-.5-.6h-1.6c0,0-2.2-.9-2.2-.9l5.7.6Z"/>
  <path d="M208.6,168.4l-14.2,2.6c-13.9,1.5-25.9-.9-38-8s-2.7-1.4-3.5-2.6l14,7.1c11,4.2,19.5,3.8,30.9,2.3,3.6-.5,7.1-1.7,10.8-1.4Z"/>
  <path d="M169.2,165.6h-1.2c-7.1-2.7-14.2-5.9-20.1-10.9l9.5,5.6,11.8,5.3Z"/>
  <path d="M201.4,167l-12.2,1.7c-5.2,0-10.4.5-15.4-1.3,0-.3,5.9,1,6.5,1,2.2.2,5.5.2,7.8,0,4.4-.3,8.7-2.2,13.3-1.4Z"/>
  <path d="M188.2,166.1c0,.5-.7.3-1,.3-1.9,0-3.8,0-5.7,0l-7.6-1.1c2.7-.1,5.5.7,8.2.9s4.1-.2,6.2,0Z"/>
  <path d="M233.2,134.3l-.9.7-10.1,5.3c3.1-2.7,7.2-4.3,10.9-6Z"/>
</svg>