<?xml version="1.0" encoding="UTF-8"?>
<svg id="_レイヤー_1" xmlns="http://www.w3.org/2000/svg" version="1.1" viewBox="0 0 700 400">
  <!-- Generator: Adobe Illustrator 29.7.1, SVG Export Plug-In . SVG Version: 2.1.1 Build 8)  -->
  <defs>
    <style>
      .st0 {
        fill: #555;
      }
    </style>
  </defs>
  <path class="st0" d="M125.56,60.96c3.89,5.25,7.77,6.51,19.32,8.5,3.25.63,4.73,1.26,6.2,2.62,1.26,1.15,2.73,3.15,2.73,4.84,0,2-1.79,2.1-6.2,2.41-10.92.63-17.75,6.4-17.75,11.24,0,3.99.95,5.04,9.87,14.6,2.41-.74,6.83-1.89,12.19-1.89,17.85,0,30.56,13.44,30.56,24.46,0,1.15-.21,5.46-3.36,5.46-.95,0-4.62-1.89-5.35-2.1-2.73-.42-9.35-.1-10.4-.1l-.31-1.58c9.35-2.41,11.34-2.94,11.34-5.89,0-5.77-8.4-16.39-23.1-16.39-4.3,0-7.04.84-8.5,1.26,3.05,3.36,8.61,9.56,8.61,19.01,0,11.55-10.19,16.28-15.12,16.28-1.68,0-2.1-.21-5.46-2.62-.84-.63-7.66-4.73-11.55-7.04l.84-1.36c3.68,1.26,12.39,4.2,15.23,4.2,5.77,0,10.09-5.04,10.09-10.19,0-3.36-1.05-8.09-8.09-16.39-13.76,5.89-28.35,19.54-32.98,26.36-1.26,1.89-1.89,2.73-3.36,2.73-3.25,0-6.51-3.57-6.51-8.93,0-2.94.95-4.94,1.58-6.3l1.57.21c.31,4.3,1.89,5.35,2.63,5.35.84,0,2-.95,2.84-1.68,9.76-8.09,19.85-15.96,31.5-21-5.04-5.78-8.82-10.19-8.82-15.86,0-3.99,1.89-7.99,9.76-12.71,1.15-.63,5.25-3.15,5.25-3.68,0-.63-.31-.74-3.15-1.36-10.5-2.41-12.71-6.72-13.55-11.76l1.47-.74-.02.03Z"/>
  <path class="st0" d="M210.82,66.95c1.36,1.79,3.05,3.79,6.94,3.79,4.62,0,27.72-5.46,28.35-5.46,2.62,0,6.2,3.99,6.2,5.77,0,1.36-.95,2-3.46,3.46-6.4,3.99-33.71,30.66-34.03,30.98,7.99-5.04,15.75-9.98,28.35-9.98,13.55,0,26.15,7.35,26.15,22.05,0,15.75-14.07,27.72-33.92,27.83-12.81,0-20.59-5.25-20.59-12.71,0-6.83,6.4-11.76,13.76-11.76,6.83,0,16.28,4.62,18.69,17.64,14.29-4.84,15.75-15.96,15.75-20.69,0-11.66-8.61-17.85-20.79-17.85-20.59,0-36.96,16.91-40.54,21.53-3.05,3.79-3.46,4.2-4.84,4.2-2,0-2.41-2.41-2.41-3.79,0-2.84,1.58-4.2,2.94-5.46,3.25-2.94,12.91-12.6,19.32-19.01,22.26-22.05,24.79-24.46,24.79-25.63,0-.31-.21-.84-1.05-.84-1.26,0-6.3.95-12.5,2.94-1.36.42-8.3,3.46-9.98,3.46-.52,0-8.61-1.15-8.61-9.87l1.47-.63h.01ZM228.04,125.65c-4.72,0-7.88,3.25-7.88,6.72,0,5.56,7.56,8.19,14.39,8.19,2.2,0,4.73-.21,6.83-.63-1.05-10.81-8.82-14.29-13.34-14.29h0Z"/>
  <path class="st0" d="M332.95,110.54c1.47.1,2.62.21,4.51.21,14.18,0,25.94-5.15,25.94-16.59,0-8.09-6.4-11.55-12.6-11.55-10.19,0-22.58,5.89-35.91,14.39,7.35,13.65,9.66,19.01,16.06,34.76,3.05,7.56,3.36,8.4,3.36,10.29,0,1.36-.95,5.67-3.68,5.67-2.1,0-2.41-.84-4.41-8.4-2-7.35-6.51-22.26-15.86-39.39-3.99,2.73-10.5,7.25-12.08,8.4-3.89,2.94-4.3,3.25-5.89,3.25-1.47,0-8.71-1.47-9.14-9.35l1.47-.74c.74,1.05,2.31,3.05,5.04,3.05,1.36,0,2.84-.42,5.67-2.1,3.36-2,8.93-5.15,12.29-7.14-1.47-2.41-3.57-5.89-7.25-10.29-1.79-2.2-3.05-3.79-3.05-6.61,0-7.14,6.3-7.14,8.71-7.14,3.25,0,17.11.84,20.06.84.74,0,1.68,0,1.68-.74,0-1.05-2.73-4.41-11.34-8.19l.42-1.57c12.08.53,19.85,7.99,19.85,12.91,0,2.2-1.26,4.3-3.15,4.3-.95,0-4.94-2-5.77-2.2-4.62-1.36-13.13-1.79-16.17-1.79-3.79,0-7.88.21-7.88,3.15,0,1.26.53,2,4.73,8.5,1.26,2.1,2.94,4.84,3.79,6.2,16.28-8.82,27.2-14.81,38.85-14.81,11.03,0,18.69,6.94,18.69,16.91,0,11.76-9.87,19.85-24.68,19.85-6.61,0-10.09-1.47-12.6-2.62l.31-1.47h.02Z"/>
  <path class="st0" d="M395.65,62.34c.95-.21,1.57-.42,2.73-.42,5.46,0,11.34,4.84,11.34,7.99,0,1.58-1.15,7.99-1.36,9.35-.31,2.63-2.52,27.2-2.52,39.28,0,7.66,0,20.38,14.81,20.38s30.98-10.61,41.06-27.83l1.47.63c-6.3,22.36-26.25,33.5-41.38,33.5-22.26,0-22.26-20.06-22.26-26.78,0-8.3.53-17.22,1.58-31.61.21-3.15.63-9.56.63-12.29,0-6.3-2.2-8.4-6.4-10.61l.31-1.58h-.01Z"/>
  <path class="st0" d="M480.6,94.89c3.79,2,8.61,2.41,12.91,2.41,8.3,0,21.31-2.52,29.2-4.51-2.2-4.2-4.73-9.66-5.78-12.29-9.04,2.31-13.86,3.36-18.8,3.36-1.47,0-8.09,0-11.98-5.04l1.05-1.26c1.58.53,3.79,1.36,8.61,1.36,7.66,0,12.29-1.15,19.32-2.84-.53-1.26-2.52-7.04-3.05-8.19-1.89-4.62-4.1-4.84-7.99-4.94l-.1-1.58c.95-.95,2.31-2.2,5.89-2.2,1.15,0,7.45,0,7.77,4.84.1,2.52.31,5.77,2.2,10.71,3.15-1.05,7.35-2.41,11.02-4.41,2.52-1.47,3.25-1.79,4.41-1.79,1.79,0,4.84,1.05,4.84,2.84,0,1.58-2,2.31-3.79,3.05-4.51,1.89-9.98,3.57-14.7,4.84,2.52,5.89,4.62,9.76,5.99,12.19,5.89-1.79,10.09-3.15,13.65-4.94,3.99-2,4.3-2.2,6.51-2.2,1.36,0,5.35.21,5.35,2.73,0,2-3.15,2.94-7.14,4.2-2.84.95-13.65,4.3-15.75,4.94,3.89,6.72,4.73,7.77,11.55,17.33,1.79,2.52,3.25,4.62,3.25,8.71,0,3.25-1.15,3.79-2.31,3.79-.95,0-1.26-.1-4.3-1.89-7.77-4.51-18.59-7.14-28.04-7.14-13.76,0-18.16,5.99-18.16,11.34,0,12.29,19.43,12.29,24.15,12.29,4.41,0,7.99-.31,10.09-.74,3.25-.53,3.46-.74,4.84-.74,3.68,0,6.51,1.79,6.51,3.36,0,4.1-15.34,4.1-19.11,4.1-6.4,0-31.82,0-31.82-17.01,0-9.56,8.3-16.91,24.46-16.91,6.83,0,14.39,1.47,20.16,2.94.21.1,4.41,1.15,4.51,1.15.63,0,.74-.31.74-.63,0-.21-3.46-5.67-3.89-6.3-2.63-4.1-5.15-8.19-7.56-12.39-8.19,2-21.74,5.15-31.09,5.15-10.4,0-13.55-4.73-14.81-6.51l1.15-1.15h.03Z"/>
  <path class="st0" d="M596.62,132.27c16.23-5.79,25.58-15.84,25.58-28.86,0-12.34-9.22-21.09-22.85-21.09-1.44,0-2.52.08-3.35.15,1.29,1.44,2.58,2.9,2.58,5.03,0,2.9-6.55,18.35-8.53,23-4.42,10.05-7.77,16.61-12.65,16.61-5.56,0-11.42-7.77-11.42-17.29,0-14.55,12.8-30.7,33.74-30.7,14.85,0,27.11,8.91,27.11,24.52,0,16.44-13.56,27.42-29.93,29.77l-.3-1.14h.01ZM569.97,109.65c0,7.24,3.73,13.1,7.09,13.1s6.01-6.24,9.29-13.33c2.28-5.1,7.77-17.9,7.77-22.39,0-1.98-.84-3.28-1.37-4.11-15,3.28-22.77,15.99-22.77,26.73Z"/>
  <path class="st0" d="M58.59,213.62c1.65-.75,3.45-1.35,5.85-1.35,6,0,13.35,4.5,13.35,8.4,0,1.2-1.5,5.85-1.65,6.9-.6,2.85-1.05,6.15-1.65,15.9,3.3-.9,7.95-2.55,11.25-4.05,6.15-2.7,6.75-3,8.7-3,.9,0,6.45.45,6.45,4.05,0,2.55-2.25,3.6-7.65,5.1-10.5,3.15-16.5,4.5-19.05,5.1-.6,12.75-.75,19.65-.75,23.7,0,.9.15,4.95.15,5.7,9-5.4,24.45-13.95,40.95-13.95,18.6,0,30.6,11.85,30.6,29.55,0,20.1-15.3,32.85-32.4,32.85-3.75,0-17.25,0-26.1-14.85l1.65-1.65c4.05,3.6,9.75,8.55,21.15,8.55,13.8,0,27-8.55,27-25.8,0-12.6-7.8-21.75-23.4-21.75-4.8,0-17.7,0-39.45,14.1,0,4.8.15,15.6.3,20.1,0,1.95.45,10.5.45,12.3,0,6.75-3.3,14.55-7.35,14.55-1.8,0-2.25-1.65-3.6-5.7-1.05-3.3-1.95-6.45-18.3-19.5-2.25,1.95-6.15,5.25-7.95,6.6-.9.6-2.25,1.35-3.6,1.35-2.55,0-3.15-2.7-3.15-3.75,0-1.65,2.7-11.25,10.35-13.05,3.6-.75,4.2-1.05,8.25-3.9,5.25-3.75,10.95-7.5,17.25-11.55.15-12.75.3-21.15.45-32.25-4.5.9-17.25,3.45-21.6,3.45-8.4,0-10.8-6.9-11.55-8.85l1.8-1.5c3.9,2.85,9,2.85,9.9,2.85,5.85,0,17.85-2.25,21.45-3,.45-26.1.45-26.25-8.55-29.55l.45-2.1h0ZM48.69,305.9c7.8,5.4,8.7,6,13.95,9.9.6.45,1.05.75,1.8.75s1.05-.6,1.2-1.5c.45-2.4.45-15.15.45-22.8-2.85,2.1-5.85,4.2-17.4,13.65h0ZM112.75,229.99c1.8-.3,4.35-.9,7.8-.9,16.65,0,29.25,12.45,29.25,21.15,0,2.25-1.35,4.05-3.15,4.05-1.2,0-6.15-1.5-7.2-1.5-3,0-10.2,2.1-13.5,3.15l-1.35-1.95c3-1.95,11.1-7.2,11.1-9,0-2.4-6-10.2-23.1-12.75l.15-2.25h0Z"/>
  <path class="st0" d="M273.87,282.19l4.95-7.2c.45-.75.9-1.05,1.8-1.05.6,0,1.35.45,1.8.75l10.35,9.15c.9.75,1.35,1.5,1.35,2.25,0,2.1-2.55,2.1-3.6,2.1h-42.91c8.7,7.95,20.85,17.85,47.86,22.65l-.3,2.4c-6.45.75-9.3,3.75-11.25,6.45-12.45-5.4-28.2-13.65-40.5-31.5h-33.45c-19.2,22.05-39.9,29.7-53.41,33.75l-1.05-2.25c23.1-10.8,35.55-21.6,44.41-31.5h-29.85c-2.85,0-5.7.15-11.1.6l-2.7-7.2c4.2.3,9,.6,15,.6h33.6c3.45-4.65,4.8-6.9,6.6-10.2h-24.3c0,1.05.15,3.6-5.55,3.6-2.4,0-3-1.05-3-2.55,0-1.95.6-11.1.6-12.9v-12.3c0-11.4-.3-14.55-.6-17.7l9.45,4.95h72.16l2.85-4.05c.45-.6.75-1.05,1.35-1.05s1.2.3,1.8.75l6.75,5.85c.9.75,1.35,1.2,1.35,2.25,0,1.65-1.35,2.4-4.8,4.35v13.35c0,2.4.6,14.4.6,15.15,0,1.35,0,4.05-5.85,4.05-2.7,0-2.7-1.35-2.7-2.7v-1.05h-39.3c1.8.9,2.55,1.35,2.55,2.55,0,2.7-2.85,2.55-6,2.4-1.35,1.95-2.1,3-3.9,5.25h58.96,0ZM210.41,205.97c1.35.15,3.9.6,3.9,2.25,0,1.8-1.65,2.4-5.7,4.2v5.85h32.7c0-4.2,0-9.75-.75-13.8l11.1,1.5c1.65.15,3.75.6,3.75,2.25,0,1.8-1.65,2.55-5.7,4.2v5.85h24.45l4.95-7.2c.45-.6.75-1.2,1.8-1.2.6,0,1.35.6,1.8.9l10.35,9.15c1.05.9,1.35,1.5,1.35,2.25,0,2.1-2.7,2.1-3.6,2.1h-40.95c0,.9.3,4.8.3,5.7,0,2.4-1.65,3.9-6,3.9-3.3,0-3.3-1.8-3.3-2.55s.3-6.15.3-7.05h-32.55c0,.9.3,4.8.3,5.7,0,3.3-4.05,3.75-6,3.75-2.7,0-3.3-1.2-3.3-2.85,0-1.5.3-4.95.3-6.6h-29.4c-3,0-5.85,0-11.25.6l-2.7-7.2c4.2.3,9,.6,15.15.6h28.35c0-9-.45-11.55-.75-13.8l11.1,1.5ZM244.46,309.65l4.5-6.3c.6-.75,1.05-1.2,1.8-1.2s1.35.45,1.95,1.05l9.3,8.1c1.05.9,1.35,1.5,1.35,2.25,0,1.8-1.95,2.1-3.6,2.1h-30.3v15h34.95l4.95-6.9c.45-.75.9-1.2,1.65-1.2.9,0,1.35.45,1.95,1.05l9.9,8.55c1.05.9,1.35,1.65,1.35,2.4,0,1.95-2.55,2.1-3.6,2.1h-97.36c-5.1,0-9,.3-11.25.6l-2.7-7.2c4.65.3,9.15.6,15.15.6h37.05v-15h-19.2c-5.1,0-9,.45-11.25.6l-2.7-7.2c4.65.3,9.15.6,15.15.6h18c0-4.2,0-9.9-.75-15.15l10.65,1.5c1.5.15,3.9.45,3.9,2.25,0,1.2-.6,2.25-5.85,4.05v7.35h15,0ZM187.16,241.09v9.15h74.41v-9.15h-74.41ZM187.16,256.24v9.75h74.41v-9.75h-74.41Z"/>
  <path class="st0" d="M299.22,247.69c1.65,2.4,4.2,5.7,8.7,5.7,3.6,0,5.25-.6,17.7-5.1,22.65-8.1,37.8-11.85,53.11-11.85,19.95,0,39.6,10.95,39.6,36.9,0,49.66-64.21,49.51-77.71,49.51l-.15-2.25c51.01-6.6,68.26-24.6,68.26-48.16s-16.5-29.4-29.7-29.4c-25.05,0-49.36,12.9-65.26,21.45-1.35.75-2.4,1.2-3.75,1.2-4.8,0-13.2-7.35-13.2-14.25,0-.75.15-1.35.3-2.85l2.1-.9h0ZM391.78,215.43c16.05,2.55,27.3,11.1,27.3,18,0,3-1.95,4.65-3.6,4.65-1.95,0-2.55-.6-6.15-5.1-7.35-9.15-15.6-13.8-18.75-15.45l1.2-2.1h0ZM403.48,205.82c19.2,1.8,28.8,10.2,28.8,16.2,0,2.55-1.5,4.35-3.45,4.35s-2.4-.45-6.45-4.65c-7.95-8.4-16.95-12.3-19.95-13.65l1.05-2.25Z"/>
  <path class="st0" d="M504.14,209.72c1.35-.15,2.4-.3,3.3-.3,9.3,0,14.85,7.2,14.85,13.35,0,3.45-.9,4.05-5.25,7.2-12.6,8.7-31.95,22.35-42.91,30.6-13.65,10.5-13.65,11.7-13.65,13.8,0,3.6,3.3,5.7,16.8,14.55,6.15,3.9,28.05,18.3,41.11,30.15,6.75,6,7.35,8.85,7.35,12,0,2.7-1.05,6.75-4.05,6.75s-4.8-2.55-6.75-5.55c-10.65-16.05-39.6-36-52.81-44.26-7.8-4.8-10.95-8.7-10.95-12.9,0-6.9,6.45-11.7,16.65-19.05,11.55-8.55,42.16-31.05,42.16-37.05,0-.9-.15-4.05-6.45-7.2l.6-2.1h0Z"/>
  <path class="st0" d="M593.85,209.87c9.45,1.5,14.55,8.25,14.55,12.9,0,2.7-4.2,13.95-4.95,16.35-2.25,8.1-4.2,18.9-4.2,30.3,0,5.55.6,13.95,2.1,13.95.6,0,1.5-3.6,1.95-5.1,6.6-26.7,18.3-59.26,40.05-59.26s26.25,30,26.25,46.36c0,60.91-41.56,71.56-59.86,75.46l-.75-2.1c42.76-17.1,51.46-45.01,51.46-73.36,0-5.55,0-39.3-17.85-39.3-21.6,0-33.9,46.36-34.05,62.56,0,8.4,0,12.6-4.95,12.6-8.85,0-11.7-19.8-11.7-30.75,0-10.05,1.5-19.05,5.1-39.6.75-4.35.9-6,.9-7.5,0-6.15-2.25-8.4-5.4-11.7l1.35-1.8h0Z"/>
</svg>